<?xml version="1.0" encoding="UTF-8" standalone="no"?><svg xmlns="http://www.w3.org/2000/svg" xmlns:xlink="http://www.w3.org/1999/xlink" contentStyleType="text/css" height="650px" preserveAspectRatio="none" style="width:861px;height:650px;background:#FFFFFF;" version="1.1" viewBox="0 0 861 650" width="861px" zoomAndPan="magnify"><defs/><g><rect height="26.2969" id="_title" style="stroke:#00000000;stroke-width:1.0;fill:none;" width="131" x="358" y="5"/><text fill="#000000" font-family="sans-serif" font-size="14" font-weight="bold" lengthAdjust="spacing" textLength="121" x="363" y="22.9951">Chord Protocol</text><!--MD5=[f6a81fdb821d4e7a0c116773b11f9a84]
class ChordRpcServer--><g id="elem_ChordRpcServer"><rect codeLine="7" fill="#F1F1F1" height="64.2969" id="ChordRpcServer" rx="2.5" ry="2.5" style="stroke:#181818;stroke-width:0.5;" width="150" x="317" y="44.2969"/><ellipse cx="332" cy="60.2969" fill="#ADD1B2" rx="11" ry="11" style="stroke:#181818;stroke-width:1.0;"/><path d="M334.3438,55.9688 C333.4063,55.5313 332.8125,55.3906 331.9375,55.3906 C329.3125,55.3906 327.3125,57.4688 327.3125,60.1875 L327.3125,61.3125 C327.3125,63.8906 329.4219,65.7813 332.3125,65.7813 C333.5313,65.7813 334.6875,65.4844 335.4375,64.9375 C336.0156,64.5313 336.3438,64.0781 336.3438,63.6875 C336.3438,63.2344 335.9531,62.8438 335.4844,62.8438 C335.2656,62.8438 335.0625,62.9219 334.875,63.1094 C334.4219,63.5938 334.4219,63.5938 334.2344,63.6875 C333.8125,63.9531 333.125,64.0781 332.3594,64.0781 C330.3125,64.0781 329.0156,62.9844 329.0156,61.2813 L329.0156,60.1875 C329.0156,58.4063 330.2656,57.0938 332,57.0938 C332.5781,57.0938 333.1875,57.25 333.6563,57.5 C334.1406,57.7813 334.3125,58 334.4063,58.4063 C334.4688,58.8125 334.5,58.9375 334.6406,59.0625 C334.7813,59.2031 335.0156,59.3125 335.2344,59.3125 C335.5,59.3125 335.7656,59.1719 335.9375,58.9531 C336.0469,58.7969 336.0781,58.6094 336.0781,58.1875 L336.0781,56.7656 C336.0781,56.3281 336.0625,56.2031 335.9688,56.0469 C335.8125,55.7813 335.5313,55.6406 335.2344,55.6406 C334.9375,55.6406 334.7344,55.7344 334.5156,56.0469 L334.3438,55.9688 Z " fill="#000000"/><text fill="#000000" font-family="sans-serif" font-size="14" lengthAdjust="spacing" textLength="118" x="346" y="65.1436">ChordRpcServer</text><line style="stroke:#181818;stroke-width:0.5;" x1="318" x2="466" y1="76.2969" y2="76.2969"/><text fill="#000000" font-family="sans-serif" font-size="14" lengthAdjust="spacing" textLength="15" x="323" y="93.292">...</text><line style="stroke:#181818;stroke-width:0.5;" x1="318" x2="466" y1="100.5938" y2="100.5938"/></g><!--MD5=[1fc8f6ee8a7f4912b88273d42183ec47]
class Chord gRPC Service--><g id="elem_Chord gRPC Service"><rect codeLine="11" fill="#F1F1F1" height="145.7813" id="Chord gRPC Service" rx="2.5" ry="2.5" style="stroke:#181818;stroke-width:0.5;" width="231" x="276.5" y="168.2969"/><ellipse cx="317.6" cy="184.2969" fill="#B4A7E5" rx="11" ry="11" style="stroke:#181818;stroke-width:1.0;"/><path d="M318.5531,181.0781 L320.2719,181.0781 C320.6625,181.0781 320.85,181.0469 320.975,180.9688 C321.2406,180.8125 321.3813,180.5313 321.3813,180.2344 C321.3813,179.9688 321.2719,179.7031 321.0375,179.5313 C320.8656,179.4219 320.725,179.3906 320.2719,179.3906 L315.1313,179.3906 C314.6938,179.3906 314.5688,179.4063 314.4125,179.5 C314.1625,179.6563 314.0063,179.9531 314.0063,180.2344 C314.0063,180.5156 314.1469,180.7656 314.3656,180.9375 C314.5219,181.0469 314.7094,181.0781 315.1313,181.0781 L316.85,181.0781 L316.85,187.5938 L315.1313,187.5938 C314.6938,187.5938 314.5688,187.6094 314.4125,187.7188 C314.1625,187.875 314.0063,188.1563 314.0063,188.4531 C314.0063,188.7031 314.1469,188.9688 314.3656,189.125 C314.5219,189.25 314.725,189.2969 315.1313,189.2969 L320.2719,189.2969 C321.0219,189.2969 321.3813,189.0156 321.3813,188.4531 C321.3813,188.1719 321.2719,187.9219 321.0375,187.75 C320.8656,187.625 320.725,187.5938 320.2719,187.5938 L318.5531,187.5938 L318.5531,181.0781 Z " fill="#000000"/><text fill="#000000" font-family="sans-serif" font-size="14" font-style="italic" lengthAdjust="spacing" textLength="141" x="337.4" y="189.1436">Chord gRPC Service</text><line style="stroke:#181818;stroke-width:0.5;" x1="277.5" x2="506.5" y1="200.2969" y2="200.2969"/><line style="stroke:#181818;stroke-width:0.5;" x1="277.5" x2="506.5" y1="208.2969" y2="208.2969"/><ellipse cx="287.5" cy="219.2969" fill="#84BE84" rx="3" ry="3" style="stroke:#038048;stroke-width:1.0;"/><text fill="#000000" font-family="sans-serif" font-size="14" lengthAdjust="spacing" textLength="178" x="296.5" y="225.292">FindSuccessor (Id) : Node</text><ellipse cx="287.5" cy="235.5938" fill="#84BE84" rx="3" ry="3" style="stroke:#038048;stroke-width:1.0;"/><text fill="#000000" font-family="sans-serif" font-size="14" lengthAdjust="spacing" textLength="205" x="296.5" y="241.5889">Notify (Node) : SuccessorList</text><ellipse cx="287.5" cy="251.8906" fill="#84BE84" rx="3" ry="3" style="stroke:#038048;stroke-width:1.0;"/><text fill="#000000" font-family="sans-serif" font-size="14" lengthAdjust="spacing" textLength="179" x="296.5" y="257.8857">GetPredecessor () : Node</text><ellipse cx="287.5" cy="268.1875" fill="#84BE84" rx="3" ry="3" style="stroke:#038048;stroke-width:1.0;"/><text fill="#000000" font-family="sans-serif" font-size="14" lengthAdjust="spacing" textLength="88" x="296.5" y="274.1826">Ping () : void</text><ellipse cx="287.5" cy="284.4844" fill="#84BE84" rx="3" ry="3" style="stroke:#038048;stroke-width:1.0;"/><text fill="#000000" font-family="sans-serif" font-size="14" lengthAdjust="spacing" textLength="129" x="296.5" y="290.4795">Put(PutReq) : void</text><ellipse cx="287.5" cy="300.7813" fill="#84BE84" rx="3" ry="3" style="stroke:#038048;stroke-width:1.0;"/><text fill="#000000" font-family="sans-serif" font-size="14" lengthAdjust="spacing" textLength="168" x="296.5" y="306.7764">Get(GetReq) : GetResp</text></g><!--MD5=[0276c55ef034c711ad16864ae0c1a09b]
class Id--><g id="elem_Id"><rect codeLine="20" fill="#F1F1F1" height="64.2969" id="Id" rx="2.5" ry="2.5" style="stroke:#181818;stroke-width:0.5;" width="84" x="7" y="406.7969"/><ellipse cx="39.55" cy="422.7969" fill="#ADD1B2" rx="11" ry="11" style="stroke:#181818;stroke-width:1.0;"/><path d="M38.3469,423.6719 L39.8,423.6719 L39.8,423.7813 C39.8,424.1875 39.8313,424.3438 39.9094,424.5 C40.0656,424.75 40.3469,424.9063 40.6438,424.9063 C40.8938,424.9063 41.1594,424.7656 41.3156,424.5469 C41.4406,424.3906 41.4719,424.2344 41.4719,423.7813 L41.4719,421.8594 C41.4719,421.7031 41.4719,421.6563 41.4563,421.5 C41.3938,421.0313 41.0813,420.7188 40.6281,420.7188 C40.3781,420.7188 40.1125,420.8594 39.9406,421.0781 C39.8313,421.25 39.8,421.4063 39.8,421.8594 L39.8,421.9844 L38.3469,421.9844 L38.3469,419.5781 L42.3313,419.5781 L42.3313,420.4375 C42.3313,420.8438 42.3625,421.0156 42.4406,421.1719 C42.6125,421.4219 42.8938,421.5781 43.175,421.5781 C43.4406,421.5781 43.7063,421.4375 43.8781,421.2188 C43.9875,421.0469 44.0188,420.9063 44.0188,420.4375 L44.0188,417.8906 L36.3938,417.8906 C35.9563,417.8906 35.8313,417.9063 35.675,418 C35.425,418.1563 35.2688,418.4531 35.2688,418.7344 C35.2688,419.0156 35.4094,419.2656 35.6281,419.4375 C35.7844,419.5469 35.9719,419.5781 36.3938,419.5781 L36.6438,419.5781 L36.6438,426.0938 L36.3938,426.0938 C35.9875,426.0938 35.8313,426.1094 35.675,426.2188 C35.425,426.3906 35.2688,426.6563 35.2688,426.9531 C35.2688,427.2188 35.4094,427.4688 35.6281,427.625 C35.7688,427.75 36.0031,427.7969 36.3938,427.7969 L44.3938,427.7969 L44.3938,425.2188 C44.3938,424.7813 44.3625,424.6406 44.2844,424.4844 C44.1125,424.2344 43.8313,424.0781 43.55,424.0781 C43.2844,424.0781 43.0188,424.1875 42.8469,424.4375 C42.7375,424.5938 42.7063,424.7344 42.7063,425.2188 L42.7063,426.0938 L38.3469,426.0938 L38.3469,423.6719 Z " fill="#000000"/><text fill="#000000" font-family="sans-serif" font-size="14" lengthAdjust="spacing" textLength="13" x="57.45" y="427.6436">Id</text><line style="stroke:#181818;stroke-width:0.5;" x1="8" x2="90" y1="438.7969" y2="438.7969"/><ellipse cx="18" cy="449.7969" fill="none" rx="3" ry="3" style="stroke:#038048;stroke-width:1.0;"/><text fill="#000000" font-family="sans-serif" font-size="14" lengthAdjust="spacing" textLength="58" x="27" y="455.792">bytes id</text><line style="stroke:#181818;stroke-width:0.5;" x1="8" x2="90" y1="463.0938" y2="463.0938"/></g><!--MD5=[3fee75583bb7a64f68d843a3c9534ab3]
class Node--><g id="elem_Node"><rect codeLine="23" fill="#F1F1F1" height="80.5938" id="Node" rx="2.5" ry="2.5" style="stroke:#181818;stroke-width:0.5;" width="104" x="164" y="563.2969"/><ellipse cx="194.75" cy="579.2969" fill="#ADD1B2" rx="11" ry="11" style="stroke:#181818;stroke-width:1.0;"/><path d="M193.5469,580.1719 L195,580.1719 L195,580.2813 C195,580.6875 195.0313,580.8438 195.1094,581 C195.2656,581.25 195.5469,581.4063 195.8438,581.4063 C196.0938,581.4063 196.3594,581.2656 196.5156,581.0469 C196.6406,580.8906 196.6719,580.7344 196.6719,580.2813 L196.6719,578.3594 C196.6719,578.2031 196.6719,578.1563 196.6563,578 C196.5938,577.5313 196.2813,577.2188 195.8281,577.2188 C195.5781,577.2188 195.3125,577.3594 195.1406,577.5781 C195.0313,577.75 195,577.9063 195,578.3594 L195,578.4844 L193.5469,578.4844 L193.5469,576.0781 L197.5313,576.0781 L197.5313,576.9375 C197.5313,577.3438 197.5625,577.5156 197.6406,577.6719 C197.8125,577.9219 198.0938,578.0781 198.375,578.0781 C198.6406,578.0781 198.9063,577.9375 199.0781,577.7188 C199.1875,577.5469 199.2188,577.4063 199.2188,576.9375 L199.2188,574.3906 L191.5938,574.3906 C191.1563,574.3906 191.0313,574.4063 190.875,574.5 C190.625,574.6563 190.4688,574.9531 190.4688,575.2344 C190.4688,575.5156 190.6094,575.7656 190.8281,575.9375 C190.9844,576.0469 191.1719,576.0781 191.5938,576.0781 L191.8438,576.0781 L191.8438,582.5938 L191.5938,582.5938 C191.1875,582.5938 191.0313,582.6094 190.875,582.7188 C190.625,582.8906 190.4688,583.1563 190.4688,583.4531 C190.4688,583.7188 190.6094,583.9688 190.8281,584.125 C190.9688,584.25 191.2031,584.2969 191.5938,584.2969 L199.5938,584.2969 L199.5938,581.7188 C199.5938,581.2813 199.5625,581.1406 199.4844,580.9844 C199.3125,580.7344 199.0313,580.5781 198.75,580.5781 C198.4844,580.5781 198.2188,580.6875 198.0469,580.9375 C197.9375,581.0938 197.9063,581.2344 197.9063,581.7188 L197.9063,582.5938 L193.5469,582.5938 L193.5469,580.1719 Z " fill="#000000"/><text fill="#000000" font-family="sans-serif" font-size="14" lengthAdjust="spacing" textLength="37" x="212.25" y="584.1436">Node</text><line style="stroke:#181818;stroke-width:0.5;" x1="165" x2="267" y1="595.2969" y2="595.2969"/><ellipse cx="175" cy="606.2969" fill="none" rx="3" ry="3" style="stroke:#038048;stroke-width:1.0;"/><text fill="#000000" font-family="sans-serif" font-size="14" lengthAdjust="spacing" textLength="58" x="184" y="612.292">bytes id</text><ellipse cx="175" cy="622.5938" fill="none" rx="3" ry="3" style="stroke:#038048;stroke-width:1.0;"/><text fill="#000000" font-family="sans-serif" font-size="14" lengthAdjust="spacing" textLength="78" x="184" y="628.5889">string addr</text><line style="stroke:#181818;stroke-width:0.5;" x1="165" x2="267" y1="635.8906" y2="635.8906"/></g><!--MD5=[b0c57e1dcb52effa865c2371880e13a7]
class SuccessorList--><g id="elem_SuccessorList"><rect codeLine="28" fill="#F1F1F1" height="64.2969" id="SuccessorList" rx="2.5" ry="2.5" style="stroke:#181818;stroke-width:0.5;" width="181" x="197.5" y="406.7969"/><ellipse cx="235.9" cy="422.7969" fill="#ADD1B2" rx="11" ry="11" style="stroke:#181818;stroke-width:1.0;"/><path d="M234.6969,423.6719 L236.15,423.6719 L236.15,423.7813 C236.15,424.1875 236.1813,424.3438 236.2594,424.5 C236.4156,424.75 236.6969,424.9063 236.9938,424.9063 C237.2438,424.9063 237.5094,424.7656 237.6656,424.5469 C237.7906,424.3906 237.8219,424.2344 237.8219,423.7813 L237.8219,421.8594 C237.8219,421.7031 237.8219,421.6563 237.8063,421.5 C237.7438,421.0313 237.4313,420.7188 236.9781,420.7188 C236.7281,420.7188 236.4625,420.8594 236.2906,421.0781 C236.1813,421.25 236.15,421.4063 236.15,421.8594 L236.15,421.9844 L234.6969,421.9844 L234.6969,419.5781 L238.6813,419.5781 L238.6813,420.4375 C238.6813,420.8438 238.7125,421.0156 238.7906,421.1719 C238.9625,421.4219 239.2438,421.5781 239.525,421.5781 C239.7906,421.5781 240.0563,421.4375 240.2281,421.2188 C240.3375,421.0469 240.3688,420.9063 240.3688,420.4375 L240.3688,417.8906 L232.7438,417.8906 C232.3063,417.8906 232.1813,417.9063 232.025,418 C231.775,418.1563 231.6188,418.4531 231.6188,418.7344 C231.6188,419.0156 231.7594,419.2656 231.9781,419.4375 C232.1344,419.5469 232.3219,419.5781 232.7438,419.5781 L232.9938,419.5781 L232.9938,426.0938 L232.7438,426.0938 C232.3375,426.0938 232.1813,426.1094 232.025,426.2188 C231.775,426.3906 231.6188,426.6563 231.6188,426.9531 C231.6188,427.2188 231.7594,427.4688 231.9781,427.625 C232.1188,427.75 232.3531,427.7969 232.7438,427.7969 L240.7438,427.7969 L240.7438,425.2188 C240.7438,424.7813 240.7125,424.6406 240.6344,424.4844 C240.4625,424.2344 240.1813,424.0781 239.9,424.0781 C239.6344,424.0781 239.3688,424.1875 239.1969,424.4375 C239.0875,424.5938 239.0563,424.7344 239.0563,425.2188 L239.0563,426.0938 L234.6969,426.0938 L234.6969,423.6719 Z " fill="#000000"/><text fill="#000000" font-family="sans-serif" font-size="14" lengthAdjust="spacing" textLength="97" x="255.1" y="427.6436">SuccessorList</text><line style="stroke:#181818;stroke-width:0.5;" x1="198.5" x2="377.5" y1="438.7969" y2="438.7969"/><ellipse cx="208.5" cy="449.7969" fill="none" rx="3" ry="3" style="stroke:#038048;stroke-width:1.0;"/><text fill="#000000" font-family="sans-serif" font-size="14" lengthAdjust="spacing" textLength="155" x="217.5" y="455.792">repeated Node nodes</text><line style="stroke:#181818;stroke-width:0.5;" x1="198.5" x2="377.5" y1="463.0938" y2="463.0938"/></g><!--MD5=[ce89b4e66431b0449f92831f97b61c16]
class PutReq--><g id="elem_PutReq"><rect codeLine="34" fill="#F1F1F1" height="129.4844" id="PutReq" rx="2.5" ry="2.5" style="stroke:#181818;stroke-width:0.5;" width="164" x="414" y="374.2969"/><ellipse cx="465.75" cy="390.2969" fill="#ADD1B2" rx="11" ry="11" style="stroke:#181818;stroke-width:1.0;"/><path d="M464.5469,391.1719 L466,391.1719 L466,391.2813 C466,391.6875 466.0313,391.8438 466.1094,392 C466.2656,392.25 466.5469,392.4063 466.8438,392.4063 C467.0938,392.4063 467.3594,392.2656 467.5156,392.0469 C467.6406,391.8906 467.6719,391.7344 467.6719,391.2813 L467.6719,389.3594 C467.6719,389.2031 467.6719,389.1563 467.6563,389 C467.5938,388.5313 467.2813,388.2188 466.8281,388.2188 C466.5781,388.2188 466.3125,388.3594 466.1406,388.5781 C466.0313,388.75 466,388.9063 466,389.3594 L466,389.4844 L464.5469,389.4844 L464.5469,387.0781 L468.5313,387.0781 L468.5313,387.9375 C468.5313,388.3438 468.5625,388.5156 468.6406,388.6719 C468.8125,388.9219 469.0938,389.0781 469.375,389.0781 C469.6406,389.0781 469.9063,388.9375 470.0781,388.7188 C470.1875,388.5469 470.2188,388.4063 470.2188,387.9375 L470.2188,385.3906 L462.5938,385.3906 C462.1563,385.3906 462.0313,385.4063 461.875,385.5 C461.625,385.6563 461.4688,385.9531 461.4688,386.2344 C461.4688,386.5156 461.6094,386.7656 461.8281,386.9375 C461.9844,387.0469 462.1719,387.0781 462.5938,387.0781 L462.8438,387.0781 L462.8438,393.5938 L462.5938,393.5938 C462.1875,393.5938 462.0313,393.6094 461.875,393.7188 C461.625,393.8906 461.4688,394.1563 461.4688,394.4531 C461.4688,394.7188 461.6094,394.9688 461.8281,395.125 C461.9688,395.25 462.2031,395.2969 462.5938,395.2969 L470.5938,395.2969 L470.5938,392.7188 C470.5938,392.2813 470.5625,392.1406 470.4844,391.9844 C470.3125,391.7344 470.0313,391.5781 469.75,391.5781 C469.4844,391.5781 469.2188,391.6875 469.0469,391.9375 C468.9375,392.0938 468.9063,392.2344 468.9063,392.7188 L468.9063,393.5938 L464.5469,393.5938 L464.5469,391.1719 Z " fill="#000000"/><text fill="#000000" font-family="sans-serif" font-size="14" lengthAdjust="spacing" textLength="52" x="486.25" y="395.1436">PutReq</text><line style="stroke:#181818;stroke-width:0.5;" x1="415" x2="577" y1="406.2969" y2="406.2969"/><ellipse cx="425" cy="417.2969" fill="none" rx="3" ry="3" style="stroke:#038048;stroke-width:1.0;"/><text fill="#000000" font-family="sans-serif" font-size="14" lengthAdjust="spacing" textLength="71" x="434" y="423.292">bytes key</text><ellipse cx="425" cy="433.5938" fill="none" rx="3" ry="3" style="stroke:#038048;stroke-width:1.0;"/><text fill="#000000" font-family="sans-serif" font-size="14" lengthAdjust="spacing" textLength="82" x="434" y="439.5889">bytes value</text><ellipse cx="425" cy="449.8906" fill="none" rx="3" ry="3" style="stroke:#038048;stroke-width:1.0;"/><text fill="#000000" font-family="sans-serif" font-size="14" lengthAdjust="spacing" textLength="87" x="434" y="455.8857">int64 expire</text><ellipse cx="425" cy="466.1875" fill="none" rx="3" ry="3" style="stroke:#038048;stroke-width:1.0;"/><text fill="#000000" font-family="sans-serif" font-size="14" lengthAdjust="spacing" textLength="138" x="434" y="472.1826">string initiatorAddr</text><ellipse cx="425" cy="482.4844" fill="none" rx="3" ry="3" style="stroke:#038048;stroke-width:1.0;"/><text fill="#000000" font-family="sans-serif" font-size="14" lengthAdjust="spacing" textLength="119" x="434" y="488.4795">int32 replication</text><line style="stroke:#181818;stroke-width:0.5;" x1="415" x2="577" y1="495.7813" y2="495.7813"/></g><!--MD5=[f00e4de8e60b9926e93797d07b897e09]
class GetReq--><g id="elem_GetReq"><rect codeLine="42" fill="#F1F1F1" height="64.2969" id="GetReq" rx="2.5" ry="2.5" style="stroke:#181818;stroke-width:0.5;" width="97" x="613.5" y="406.7969"/><ellipse cx="633" cy="422.7969" fill="#ADD1B2" rx="11" ry="11" style="stroke:#181818;stroke-width:1.0;"/><path d="M631.7969,423.6719 L633.25,423.6719 L633.25,423.7813 C633.25,424.1875 633.2813,424.3438 633.3594,424.5 C633.5156,424.75 633.7969,424.9063 634.0938,424.9063 C634.3438,424.9063 634.6094,424.7656 634.7656,424.5469 C634.8906,424.3906 634.9219,424.2344 634.9219,423.7813 L634.9219,421.8594 C634.9219,421.7031 634.9219,421.6563 634.9063,421.5 C634.8438,421.0313 634.5313,420.7188 634.0781,420.7188 C633.8281,420.7188 633.5625,420.8594 633.3906,421.0781 C633.2813,421.25 633.25,421.4063 633.25,421.8594 L633.25,421.9844 L631.7969,421.9844 L631.7969,419.5781 L635.7813,419.5781 L635.7813,420.4375 C635.7813,420.8438 635.8125,421.0156 635.8906,421.1719 C636.0625,421.4219 636.3438,421.5781 636.625,421.5781 C636.8906,421.5781 637.1563,421.4375 637.3281,421.2188 C637.4375,421.0469 637.4688,420.9063 637.4688,420.4375 L637.4688,417.8906 L629.8438,417.8906 C629.4063,417.8906 629.2813,417.9063 629.125,418 C628.875,418.1563 628.7188,418.4531 628.7188,418.7344 C628.7188,419.0156 628.8594,419.2656 629.0781,419.4375 C629.2344,419.5469 629.4219,419.5781 629.8438,419.5781 L630.0938,419.5781 L630.0938,426.0938 L629.8438,426.0938 C629.4375,426.0938 629.2813,426.1094 629.125,426.2188 C628.875,426.3906 628.7188,426.6563 628.7188,426.9531 C628.7188,427.2188 628.8594,427.4688 629.0781,427.625 C629.2188,427.75 629.4531,427.7969 629.8438,427.7969 L637.8438,427.7969 L637.8438,425.2188 C637.8438,424.7813 637.8125,424.6406 637.7344,424.4844 C637.5625,424.2344 637.2813,424.0781 637,424.0781 C636.7344,424.0781 636.4688,424.1875 636.2969,424.4375 C636.1875,424.5938 636.1563,424.7344 636.1563,425.2188 L636.1563,426.0938 L631.7969,426.0938 L631.7969,423.6719 Z " fill="#000000"/><text fill="#000000" font-family="sans-serif" font-size="14" lengthAdjust="spacing" textLength="55" x="648" y="427.6436">GetReq</text><line style="stroke:#181818;stroke-width:0.5;" x1="614.5" x2="709.5" y1="438.7969" y2="438.7969"/><ellipse cx="624.5" cy="449.7969" fill="none" rx="3" ry="3" style="stroke:#038048;stroke-width:1.0;"/><text fill="#000000" font-family="sans-serif" font-size="14" lengthAdjust="spacing" textLength="71" x="633.5" y="455.792">bytes key</text><line style="stroke:#181818;stroke-width:0.5;" x1="614.5" x2="709.5" y1="463.0938" y2="463.0938"/></g><!--MD5=[1b4e8f699d44617d1dc5440ca95c731a]
class GetResp--><g id="elem_GetResp"><rect codeLine="46" fill="#F1F1F1" height="80.5938" id="GetResp" rx="2.5" ry="2.5" style="stroke:#181818;stroke-width:0.5;" width="108" x="746" y="398.2969"/><ellipse cx="766.85" cy="414.2969" fill="#ADD1B2" rx="11" ry="11" style="stroke:#181818;stroke-width:1.0;"/><path d="M765.6469,415.1719 L767.1,415.1719 L767.1,415.2813 C767.1,415.6875 767.1313,415.8438 767.2094,416 C767.3656,416.25 767.6469,416.4063 767.9438,416.4063 C768.1938,416.4063 768.4594,416.2656 768.6156,416.0469 C768.7406,415.8906 768.7719,415.7344 768.7719,415.2813 L768.7719,413.3594 C768.7719,413.2031 768.7719,413.1563 768.7563,413 C768.6938,412.5313 768.3813,412.2188 767.9281,412.2188 C767.6781,412.2188 767.4125,412.3594 767.2406,412.5781 C767.1313,412.75 767.1,412.9063 767.1,413.3594 L767.1,413.4844 L765.6469,413.4844 L765.6469,411.0781 L769.6313,411.0781 L769.6313,411.9375 C769.6313,412.3438 769.6625,412.5156 769.7406,412.6719 C769.9125,412.9219 770.1938,413.0781 770.475,413.0781 C770.7406,413.0781 771.0063,412.9375 771.1781,412.7188 C771.2875,412.5469 771.3188,412.4063 771.3188,411.9375 L771.3188,409.3906 L763.6938,409.3906 C763.2563,409.3906 763.1313,409.4063 762.975,409.5 C762.725,409.6563 762.5688,409.9531 762.5688,410.2344 C762.5688,410.5156 762.7094,410.7656 762.9281,410.9375 C763.0844,411.0469 763.2719,411.0781 763.6938,411.0781 L763.9438,411.0781 L763.9438,417.5938 L763.6938,417.5938 C763.2875,417.5938 763.1313,417.6094 762.975,417.7188 C762.725,417.8906 762.5688,418.1563 762.5688,418.4531 C762.5688,418.7188 762.7094,418.9688 762.9281,419.125 C763.0688,419.25 763.3031,419.2969 763.6938,419.2969 L771.6938,419.2969 L771.6938,416.7188 C771.6938,416.2813 771.6625,416.1406 771.5844,415.9844 C771.4125,415.7344 771.1313,415.5781 770.85,415.5781 C770.5844,415.5781 770.3188,415.6875 770.1469,415.9375 C770.0375,416.0938 770.0063,416.2344 770.0063,416.7188 L770.0063,417.5938 L765.6469,417.5938 L765.6469,415.1719 Z " fill="#000000"/><text fill="#000000" font-family="sans-serif" font-size="14" lengthAdjust="spacing" textLength="63" x="782.15" y="419.1436">GetResp</text><line style="stroke:#181818;stroke-width:0.5;" x1="747" x2="853" y1="430.2969" y2="430.2969"/><ellipse cx="757" cy="441.2969" fill="none" rx="3" ry="3" style="stroke:#038048;stroke-width:1.0;"/><text fill="#000000" font-family="sans-serif" font-size="14" lengthAdjust="spacing" textLength="82" x="766" y="447.292">bytes value</text><ellipse cx="757" cy="457.5938" fill="none" rx="3" ry="3" style="stroke:#038048;stroke-width:1.0;"/><text fill="#000000" font-family="sans-serif" font-size="14" lengthAdjust="spacing" textLength="54" x="766" y="463.5889">bool ok</text><line style="stroke:#181818;stroke-width:0.5;" x1="747" x2="853" y1="470.8906" y2="470.8906"/></g><!--MD5=[d99eaf2083fb652dc67376ef01d0b5f2]
reverse link ChordRpcServer to Chord gRPC Service--><g id="link_ChordRpcServer_Chord gRPC Service"><path codeLine="10" d="M392,128.7339 C392,141.2489 392,154.8629 392,168.1429 " fill="none" id="ChordRpcServer-backto-Chord gRPC Service" style="stroke:#181818;stroke-width:1.0;stroke-dasharray:7.0,7.0;"/><polygon fill="none" points="385,128.3399,392,108.3399,399,128.3399,385,128.3399" style="stroke:#181818;stroke-width:1.0;"/></g><!--MD5=[4905efdf299e409f7ac4f0c7b74c9156]
reverse link SuccessorList to Node--><g id="link_SuccessorList_Node"><path codeLine="32" d="M268.973,482.8719 C257.969,507.7839 244.221,538.9089 233.488,563.2059 " fill="none" id="SuccessorList-backto-Node" style="stroke:#181818;stroke-width:1.0;"/><polygon fill="none" points="274.288,470.8399,268.2047,474.712,269.4392,481.8166,275.5225,477.9445,274.288,470.8399" style="stroke:#181818;stroke-width:1.0;"/></g><!--MD5=[a30b34b13caaeadc2d0fe5e00972c314]
link Chord gRPC Service to Id--><g id="link_Chord gRPC Service_Id"><path codeLine="50" d="M276.227,288.9259 C225.75,311.5309 167.037,341.0059 118,374.2969 C105.7641,382.6039 93.5235,393.0119 82.8222,402.9829 " fill="none" id="Chord gRPC Service-to-Id" style="stroke:#181818;stroke-width:1.0;stroke-dasharray:7.0,7.0;"/><polygon fill="#181818" points="78.9522,406.6319,88.2441,403.3668,82.5897,403.2013,82.7552,397.5469,78.9522,406.6319" style="stroke:#181818;stroke-width:1.0;"/></g><!--MD5=[fc4be4a19b23ae2a4c624525f7cdac0a]
link Chord gRPC Service to Node--><g id="link_Chord gRPC Service_Node"><path codeLine="51" d="M276.34,286.7669 C238.744,307.3919 201.261,336.0139 180,374.2969 C147.889,432.1169 171.992,510.1089 193.271,558.3902 " fill="none" id="Chord gRPC Service-to-Node" style="stroke:#181818;stroke-width:1.0;stroke-dasharray:7.0,7.0;"/><polygon fill="#181818" points="195.319,562.9682,195.2934,553.1194,193.2764,558.4044,187.9914,556.3874,195.319,562.9682" style="stroke:#181818;stroke-width:1.0;"/></g><!--MD5=[64dbb19376ba927dc3d2171294afd2ec]
link Chord gRPC Service to SuccessorList--><g id="link_Chord gRPC Service_SuccessorList"><path codeLine="52" d="M353.57,314.5389 C337.664,344.4389 319.937,377.7619 306.929,402.2149 " fill="none" id="Chord gRPC Service-to-SuccessorList" style="stroke:#181818;stroke-width:1.0;stroke-dasharray:7.0,7.0;"/><polygon fill="#181818" points="304.556,406.6739,312.3146,400.6072,306.9045,402.2597,305.252,396.8496,304.556,406.6739" style="stroke:#181818;stroke-width:1.0;"/></g><!--MD5=[62fd0e59b06eb4be3f9290efecf58e56]
link Chord gRPC Service to PutReq--><g id="link_Chord gRPC Service_PutReq"><path codeLine="53" d="M430.43,314.5389 C440.032,332.5879 450.297,351.8839 459.787,369.7239 " fill="none" id="Chord gRPC Service-to-PutReq" style="stroke:#181818;stroke-width:1.0;stroke-dasharray:7.0,7.0;"/><polygon fill="#181818" points="462.183,374.2269,461.487,364.4026,459.8345,369.8127,454.4244,368.1602,462.183,374.2269" style="stroke:#181818;stroke-width:1.0;"/></g><!--MD5=[0bbb586033049833ca92c482640e4bfb]
link Chord gRPC Service to GetReq--><g id="link_Chord gRPC Service_GetReq"><path codeLine="54" d="M507.713,311.6989 C537.282,330.8979 568.478,352.4829 596,374.2969 C606.987,383.0049 618.235,393.2479 628.261,402.9339 " fill="none" id="Chord gRPC Service-to-GetReq" style="stroke:#181818;stroke-width:1.0;stroke-dasharray:7.0,7.0;"/><polygon fill="#181818" points="631.897,406.4739,628.2374,397.3302,628.3139,402.9865,622.6576,403.0631,631.897,406.4739" style="stroke:#181818;stroke-width:1.0;"/></g><!--MD5=[a00e0c76846efe45feea1a90dc47c029]
link Chord gRPC Service to GetResp--><g id="link_Chord gRPC Service_GetResp"><path codeLine="55" d="M507.878,276.6599 C574.891,299.2079 659.28,332.3019 728,374.2969 C737.533,380.1229 747.01,387.2509 755.807,394.6009 " fill="none" id="Chord gRPC Service-to-GetResp" style="stroke:#181818;stroke-width:1.0;stroke-dasharray:7.0,7.0;"/><polygon fill="#181818" points="760.068,398.2219,755.7993,389.3462,756.2576,394.9844,750.6194,395.4428,760.068,398.2219" style="stroke:#181818;stroke-width:1.0;"/></g><!--MD5=[d632aeb002c360018a36d0a93df9c5a6]
@startuml
'https://www.planttext.com/
'https://plantuml.com/zh/class-diagram
'https://blog.csdn.net/K346K346/article/details/59582926

title Chord Protocol

class ChordRpcServer{
    ...
}
ChordRpcServer <|.. "Chord gRPC Service"
interface "Chord gRPC Service"{
  +FindSuccessor (Id) : Node
  +Notify (Node) : SuccessorList
  +GetPredecessor () : Node
  +Ping () : void
  +Put(PutReq) : void
  +Get(GetReq) : GetResp
}

entity Id{
    +bytes id
}
entity Node {
  +bytes id
  +string addr
}

entity SuccessorList {
  +repeated Node nodes
}

SuccessorList o- - Node

entity PutReq{
  +bytes key
  +bytes value
  +int64 expire
  +string initiatorAddr
  +int32 replication
}

entity GetReq{
  +bytes key
}

entity GetResp{
  +bytes value
  +bool ok
}
"Chord gRPC Service" ..> Id
"Chord gRPC Service" ..> Node
"Chord gRPC Service" ..> SuccessorList
"Chord gRPC Service" ..> PutReq
"Chord gRPC Service" ..> GetReq
"Chord gRPC Service" ..> GetResp
@enduml

@startuml

title Chord Protocol

class ChordRpcServer{
    ...
}
ChordRpcServer <|.. "Chord gRPC Service"
interface "Chord gRPC Service"{
  +FindSuccessor (Id) : Node
  +Notify (Node) : SuccessorList
  +GetPredecessor () : Node
  +Ping () : void
  +Put(PutReq) : void
  +Get(GetReq) : GetResp
}

entity Id{
    +bytes id
}
entity Node {
  +bytes id
  +string addr
}

entity SuccessorList {
  +repeated Node nodes
}

SuccessorList o- - Node

entity PutReq{
  +bytes key
  +bytes value
  +int64 expire
  +string initiatorAddr
  +int32 replication
}

entity GetReq{
  +bytes key
}

entity GetResp{
  +bytes value
  +bool ok
}
"Chord gRPC Service" ..> Id
"Chord gRPC Service" ..> Node
"Chord gRPC Service" ..> SuccessorList
"Chord gRPC Service" ..> PutReq
"Chord gRPC Service" ..> GetReq
"Chord gRPC Service" ..> GetResp
@enduml

PlantUML version 1.2022.7beta2(Unknown compile time)
(GPL source distribution)
Java Runtime: Java(TM) SE Runtime Environment
JVM: Java HotSpot(TM) 64-Bit Server VM
Default Encoding: UTF-8
Language: en
Country: US
--></g></svg>